<?xml version="1.0" encoding="utf-8"?>
<!-- Generator: Adobe Illustrator 16.0.0, SVG Export Plug-In . SVG Version: 6.00 Build 0)  -->
<!DOCTYPE svg PUBLIC "-//W3C//DTD SVG 1.1//EN" "http://www.w3.org/Graphics/SVG/1.1/DTD/svg11.dtd">
<svg version="1.1" id="Layer_1" xmlns="http://www.w3.org/2000/svg" xmlns:xlink="http://www.w3.org/1999/xlink" x="0px" y="0px"
	 width="109.973px" height="25px" viewBox="0 0 109.973 25" enable-background="new 0 0 109.973 25" xml:space="preserve">
<g>
	<rect x="57.4" fill="#363636" width="12.4" height="25"/>
	<rect x="68.188" fill="#363636" width="12.4" height="25"/>
	<path fill="#363636" d="M28.333,0.1l-0.001,12.382c0,6.9,5.6,12.5,12.5,12.477c6.891,0,12.476-5.586,12.476-12.477V0.1H28.333z"/>
	<path fill="#363636" d="M97.497,0.007c-6.89,0-12.476,5.584-12.476,12.475v0.011v12.472l12.524-0.009
		c6.866-0.026,12.428-5.601,12.428-12.474l-0.004-12.469L97.497,0.007z"/>
	<path fill="#363636" d="M24.951,24.962V12.493l0,0c0-0.004,0-0.007,0-0.011c0-6.891-5.584-12.475-12.476-12.475
		C5.586,0,0,5.6,0,12.482c0,6.9,5.5,12.4,12.4,12.472L24.951,24.962z"/>
</g>
</svg>
