<?xml version="1.0" encoding="utf-8"?>
<!-- Generator: Adobe Illustrator 16.0.0, SVG Export Plug-In . SVG Version: 6.00 Build 0)  -->
<!DOCTYPE svg PUBLIC "-//W3C//DTD SVG 1.1//EN" "http://www.w3.org/Graphics/SVG/1.1/DTD/svg11.dtd">
<svg version="1.1" id="Layer_1" xmlns="http://www.w3.org/2000/svg" xmlns:xlink="http://www.w3.org/1999/xlink" x="0px" y="0px"
	 width="170.042px" height="25px" viewBox="0 0 170.042 25" enable-background="new 0 0 170.042 25" xml:space="preserve">
<g>
	<path fill="#FFFFFF" d="M170.039,24.962v-12.42c0-0.02,0.002-0.04,0.002-0.06s-0.002-0.04-0.002-0.06V0l-12.474,0.007
		c-6.89,0-12.476,5.584-12.476,12.475s5.586,12.477,12.476,12.477L170.039,24.962z"/>
	<path fill="#FFFFFF" d="M142.123,24.962v-12.42c0-0.02,0.004-0.04,0.004-0.06s-0.004-0.04-0.004-0.06V0L129.65,0.007
		c-6.891,0-12.477,5.584-12.477,12.475s5.586,12.477,12.477,12.477L142.123,24.962z"/>
	<rect x="57.37" y="0.049" fill="#FFFFFF" width="12.372" height="24.951"/>
	<path fill="#FFFFFF" d="M28.333,0.1l-0.001,12.382c0,6.891,5.585,12.477,12.475,12.477c6.891,0,12.476-5.586,12.476-12.477V0.1
		H28.333z"/>
	<path fill="#FFFFFF" d="M86.863,0.007c-6.89,0-12.476,5.584-12.476,12.475v0.011v12.472l12.524-0.009
		c6.867-0.026,12.428-5.601,12.428-12.474L99.335,0.013L86.863,0.007z"/>
	<path fill="#FFFFFF" d="M24.951,24.962V12.493l0,0c0-0.004,0-0.007,0-0.011c0-6.891-5.584-12.475-12.476-12.475
		C5.586,0.007,0,5.591,0,12.482c0,6.863,5.542,12.427,12.393,12.472L24.951,24.962z"/>
	<circle fill="#FFFFFF" cx="108.406" cy="18.721" r="6.228"/>
</g>
</svg>
